<?xml version="1.0" encoding="utf-8"?>
<svg version="1.1" xmlns:xlink="http://www.w3.org/1999/xlink" width="16px" height="22px" xmlns="http://www.w3.org/2000/svg">
  <g transform="matrix(1 0 0 1 -1317 -121 )">
    <path d="M 15.875 17.75  C 15.875 17.33515625  15.53984375 17  15.125 17  L 14.5625 17  L 14.5625 9.03125  C 14.5625 5.72421875  12.11796875 2.99140625  8.9375 2.53671875  L 8.9375 1.625  C 8.9375 1.10703125  8.51796875 0.6875  8 0.6875  C 7.48203125 0.6875  7.0625 1.10703125  7.0625 1.625  L 7.0625 2.53671875  C 3.88203125 2.99140625  1.4375 5.72421875  1.4375 9.03125  L 1.4375 17  L 0.875 17  C 0.460156250000001 17  0.125 17.33515625  0.125 17.75  L 0.125 18.5  C 0.125 18.603125  0.209375 18.6875  0.3125 18.6875  L 5.375 18.6875  C 5.375 20.1359375  6.5515625 21.3125  8 21.3125  C 9.4484375 21.3125  10.625 20.1359375  10.625 18.6875  L 15.6875 18.6875  C 15.790625 18.6875  15.875 18.603125  15.875 18.5  L 15.875 17.75  Z M 9.125 18.6875  C 9.125 19.30859375  8.62109375 19.8125  8 19.8125  C 7.37890625 19.8125  6.875 19.30859375  6.875 18.6875  L 9.125 18.6875  Z M 12.875 17  L 3.125 17  L 3.125 9.03125  C 3.125 7.728125  3.63125 6.5046875  4.55234375 5.58359375  C 5.4734375 4.6625  6.696875 4.15625  8 4.15625  C 9.303125 4.15625  10.5265625 4.6625  11.44765625 5.58359375  C 12.36875 6.5046875  12.875 7.728125  12.875 9.03125  L 12.875 17  Z " fill-rule="nonzero" fill="#000000" stroke="none" fill-opacity="0.447058823529412" transform="matrix(1 0 0 1 1317 121 )" />
  </g>
</svg>