<?xml version="1.0" encoding="utf-8"?>
<svg version="1.1" xmlns:xlink="http://www.w3.org/1999/xlink" width="14px" height="14px" xmlns="http://www.w3.org/2000/svg">
  <g>
    <path d="M 13.125 7  C 13.125 3.617578125  10.382421875 0.875  7 0.875  C 3.617578125 0.875  0.875 3.617578125  0.875 7  C 0.875 10.382421875  3.617578125 13.125  7 13.125  C 10.382421875 13.125  13.125 10.382421875  13.125 7  Z M 12.0859375 7  C 12.0859375 9.808203125  9.808203125 12.0859375  7 12.0859375  C 4.191796875 12.0859375  1.9140625 9.808203125  1.9140625 7  C 1.9140625 4.191796875  4.191796875 1.9140625  7 1.9140625  C 9.808203125 1.9140625  12.0859375 4.191796875  12.0859375 7  Z M 6.34375 4.59375  C 6.34375 4.95618686707646  6.63756313292354 5.25  7 5.25  C 7.36243686707646 5.25  7.65625 4.95618686707646  7.65625 4.59375  C 7.65625 4.23131313292354  7.36243686707646 3.9375  7 3.9375  C 6.63756313292354 3.9375  6.34375 4.23131313292354  6.34375 4.59375  Z M 7.4375 6.234375  C 7.4375 6.17421875  7.38828125 6.125  7.328125 6.125  L 6.671875 6.125  C 6.61171875 6.125  6.5625 6.17421875  6.5625 6.234375  L 6.5625 9.953125  C 6.5625 10.01328125  6.61171875 10.0625  6.671875 10.0625  L 7.328125 10.0625  C 7.38828125 10.0625  7.4375 10.01328125  7.4375 9.953125  L 7.4375 6.234375  Z " fill-rule="nonzero" fill="#000000" stroke="none" fill-opacity="0.87843137254902" />
  </g>
</svg>