<?xml version="1.0" encoding="utf-8"?>
<svg version="1.1" xmlns:xlink="http://www.w3.org/1999/xlink" width="10px" height="7px" xmlns="http://www.w3.org/2000/svg">
  <g transform="matrix(1 0 0 1 -2 -4 )">
    <path d="M 3.60492076398771 6.00680098569396  C 3.51191599587359 6.0938981713108  3.38974280186108 6.14313214444325  3.26233468654033 6.14485806007041  C 3.13315679393692 6.14441193856847  3.00893504578018 6.09508859682192  2.91463539210546 6.00680098569396  L 0.189286477417422 3.45018850123586  C 0.0695549898230148 3.35310029658825  1.31414080541958E-05 3.20717826221462  1.31414080541958E-05 3.05302979935083  C 1.31414080541958E-05 2.77063418107939  0.228940021825849 2.5417073006616  0.51133564009729 2.5417073006616  C 0.652832826665257 2.5417073006616  0.788004064845005 2.60034145819318  0.884685075275261 2.70365765261029  L 3.26233468654033 4.93302374653584  L 8.37555966444461 0.147045168152199  C 8.47045016426534 0.058004081616283  8.59569055168226 0.0084451003034598  8.72581557636132 0.0084451003034598  C 9.00851107916477 0.0084451003034598  9.2376810640288 0.237615085167488  9.2376810640288 0.52031058797094  C 9.2376810640288 0.661713729349329  9.17918627956981 0.796817606559961  9.07607148827803 0.893576007789679  L 3.60492076398771 6.00680098569396  Z " fill-rule="nonzero" fill="#ffffff" stroke="none" transform="matrix(1 0 0 1 2 4 )" />
  </g>
</svg>