<?xml version="1.0" encoding="utf-8"?>
<svg version="1.1" xmlns:xlink="http://www.w3.org/1999/xlink" width="24px" height="24px" xmlns="http://www.w3.org/2000/svg">
  <defs>
    <mask fill="white" id="clip38">
      <path d="M 22.1901639344262 23.9803278688524  C 23.21687033821 24.0491803278689  24.0491803278687 23.21687033821  23.9803278688526 22.1901639344262  L 23.9803278688526 1.80983606557379  C 24.0491803278687 0.783129661789975  23.21687033821 -0.0491803278688643  22.1901639344262 0.0196721311475621  L 1.80983606557379 0.0196721311475621  C 0.783129661789985 -0.0491803278688643  -0.0491803278687826 0.783129661789975  0.0196721311475585 1.80983606557379  L 0.0196721311475585 22.1901639344262  C -0.0491803278687826 23.21687033821  0.783129661789985 24.0491803278689  1.80983606557379 23.9803278688524  L 22.1901639344262 23.9803278688524  Z M 12 14.1688524590164  C 7.38621516857052 14.1688524590164  3.62036840439652 17.7993068949459  3.40331332422215 22.327868852459  L 1.80983606557379 22.327868852459  C 1.7337837393676 22.327868852459  1.67213114754099 22.2662162606325  2 22.1901639344262  L 2 1.80983606557379  C 1.67213114754099 1.73378373936754  1.7337837393676 1.67213114754098  1.80983606557379 2  L 22.1901639344262 2  C 22.2662162606325 1.67213114754098  22.327868852459 1.73378373936754  22 1.80983606557379  L 22 22.1901639344262  C 22.327868852459 22.2662162606325  22.2662162606325 22.327868852459  22.1901639344262 22.327868852459  L 20.5966773566147 22.3278692653059  C 20.3796315956033 17.7993068949459  16.6137848314295 14.1688524590164  12 14.1688524590164  Z M 12 13.7213114754098  C 14.8519622327328 13.7213114754098  17.1639344262295 11.4093392819131  17.1639344262295 8.55737704918031  C 17.1639344262295 5.70541481644752  14.8519622327328 3.39344262295083  12 3.39344262295083  C 9.14803776726717 3.39344262295083  6.8360655737705 5.70541481644752  6.8360655737705 8.55737704918031  C 6.8360655737705 11.4093392819131  9.14803776726717 13.7213114754098  12 13.7213114754098  Z " fill-rule="evenodd" />
    </mask>
  </defs>
  <g transform="matrix(1 0 0 1 -404 -8 )">
    <path d="M 22.1901639344262 23.9803278688524  C 23.21687033821 24.0491803278689  24.0491803278687 23.21687033821  23.9803278688526 22.1901639344262  L 23.9803278688526 1.80983606557379  C 24.0491803278687 0.783129661789975  23.21687033821 -0.0491803278688643  22.1901639344262 0.0196721311475621  L 1.80983606557379 0.0196721311475621  C 0.783129661789985 -0.0491803278688643  -0.0491803278687826 0.783129661789975  0.0196721311475585 1.80983606557379  L 0.0196721311475585 22.1901639344262  C -0.0491803278687826 23.21687033821  0.783129661789985 24.0491803278689  1.80983606557379 23.9803278688524  L 22.1901639344262 23.9803278688524  Z M 12 14.1688524590164  C 7.38621516857052 14.1688524590164  3.62036840439652 17.7993068949459  3.40331332422215 22.327868852459  L 1.80983606557379 22.327868852459  C 1.7337837393676 22.327868852459  1.67213114754099 22.2662162606325  2 22.1901639344262  L 2 1.80983606557379  C 1.67213114754099 1.73378373936754  1.7337837393676 1.67213114754098  1.80983606557379 2  L 22.1901639344262 2  C 22.2662162606325 1.67213114754098  22.327868852459 1.73378373936754  22 1.80983606557379  L 22 22.1901639344262  C 22.327868852459 22.2662162606325  22.2662162606325 22.327868852459  22.1901639344262 22.327868852459  L 20.5966773566147 22.3278692653059  C 20.3796315956033 17.7993068949459  16.6137848314295 14.1688524590164  12 14.1688524590164  Z M 12 13.7213114754098  C 14.8519622327328 13.7213114754098  17.1639344262295 11.4093392819131  17.1639344262295 8.55737704918031  C 17.1639344262295 5.70541481644752  14.8519622327328 3.39344262295083  12 3.39344262295083  C 9.14803776726717 3.39344262295083  6.8360655737705 5.70541481644752  6.8360655737705 8.55737704918031  C 6.8360655737705 11.4093392819131  9.14803776726717 13.7213114754098  12 13.7213114754098  Z " fill-rule="nonzero" fill="#d7d7d7" stroke="none" transform="matrix(1 0 0 1 404 8 )" />
    <path d="M 22.1901639344262 23.9803278688524  C 23.21687033821 24.0491803278689  24.0491803278687 23.21687033821  23.9803278688526 22.1901639344262  L 23.9803278688526 1.80983606557379  C 24.0491803278687 0.783129661789975  23.21687033821 -0.0491803278688643  22.1901639344262 0.0196721311475621  L 1.80983606557379 0.0196721311475621  C 0.783129661789985 -0.0491803278688643  -0.0491803278687826 0.783129661789975  0.0196721311475585 1.80983606557379  L 0.0196721311475585 22.1901639344262  C -0.0491803278687826 23.21687033821  0.783129661789985 24.0491803278689  1.80983606557379 23.9803278688524  L 22.1901639344262 23.9803278688524  Z " stroke-width="2" stroke="#797979" fill="none" transform="matrix(1 0 0 1 404 8 )" mask="url(#clip38)" />
    <path d="M 12 14.1688524590164  C 7.38621516857052 14.1688524590164  3.62036840439652 17.7993068949459  3.40331332422215 22.327868852459  L 1.80983606557379 22.327868852459  C 1.7337837393676 22.327868852459  1.67213114754099 22.2662162606325  2 22.1901639344262  L 2 1.80983606557379  C 1.67213114754099 1.73378373936754  1.7337837393676 1.67213114754098  1.80983606557379 2  L 22.1901639344262 2  C 22.2662162606325 1.67213114754098  22.327868852459 1.73378373936754  22 1.80983606557379  L 22 22.1901639344262  C 22.327868852459 22.2662162606325  22.2662162606325 22.327868852459  22.1901639344262 22.327868852459  L 20.5966773566147 22.3278692653059  C 20.3796315956033 17.7993068949459  16.6137848314295 14.1688524590164  12 14.1688524590164  Z " stroke-width="2" stroke="#797979" fill="none" transform="matrix(1 0 0 1 404 8 )" mask="url(#clip38)" />
    <path d="M 12 13.7213114754098  C 14.8519622327328 13.7213114754098  17.1639344262295 11.4093392819131  17.1639344262295 8.55737704918031  C 17.1639344262295 5.70541481644752  14.8519622327328 3.39344262295083  12 3.39344262295083  C 9.14803776726717 3.39344262295083  6.8360655737705 5.70541481644752  6.8360655737705 8.55737704918031  C 6.8360655737705 11.4093392819131  9.14803776726717 13.7213114754098  12 13.7213114754098  Z " stroke-width="2" stroke="#797979" fill="none" transform="matrix(1 0 0 1 404 8 )" mask="url(#clip38)" />
  </g>
</svg>