<?xml version="1.0" encoding="utf-8"?>
<svg version="1.1" xmlns:xlink="http://www.w3.org/1999/xlink" width="10px" height="7px" xmlns="http://www.w3.org/2000/svg">
  <defs>
    <mask fill="white" id="clip25">
      <path d="M 4.77083333007812 6.27083333333337  C 4.89583333007812 6.41666666341149  5.10416666015624 6.41666666341149  5.22916666992188 6.27083333333337  L 9.625 0.770833333333314  C 9.77083333007812 0.583333333333314  9.64583333007812 0.291666663411434  9.39583333007812 0.291666663411434  L 0.604166669921881 0.291666663411434  C 0.354166669921881 0.291666663411434  0.229166669921881 0.583333333333314  0.375 0.770833333333314  L 4.77083333007812 6.27083333333337  Z " fill-rule="evenodd" />
    </mask>
  </defs>
  <g transform="matrix(1 0 0 1 -162 -21 )">
    <path d="M 4.77083333007812 6.27083333333337  C 4.89583333007812 6.41666666341149  5.10416666015624 6.41666666341149  5.22916666992188 6.27083333333337  L 9.625 0.770833333333314  C 9.77083333007812 0.583333333333314  9.64583333007812 0.291666663411434  9.39583333007812 0.291666663411434  L 0.604166669921881 0.291666663411434  C 0.354166669921881 0.291666663411434  0.229166669921881 0.583333333333314  0.375 0.770833333333314  L 4.77083333007812 6.27083333333337  Z " fill-rule="nonzero" fill="#1890ff" stroke="none" transform="matrix(1 0 0 1 162 21 )" />
    <path d="M 4.77083333007812 6.27083333333337  C 4.89583333007812 6.41666666341149  5.10416666015624 6.41666666341149  5.22916666992188 6.27083333333337  L 9.625 0.770833333333314  C 9.77083333007812 0.583333333333314  9.64583333007812 0.291666663411434  9.39583333007812 0.291666663411434  L 0.604166669921881 0.291666663411434  C 0.354166669921881 0.291666663411434  0.229166669921881 0.583333333333314  0.375 0.770833333333314  L 4.77083333007812 6.27083333333337  Z " stroke-width="2" stroke="#797979" fill="none" transform="matrix(1 0 0 1 162 21 )" mask="url(#clip25)" />
  </g>
</svg>