<?xml version="1.0" encoding="utf-8"?>
<svg version="1.1" xmlns:xlink="http://www.w3.org/1999/xlink" width="12px" height="8px" xmlns="http://www.w3.org/2000/svg">
  <g transform="matrix(1 0 0 1 -226 -16 )">
    <path d="M 11.9761171245087 7.8015625  C 11.9761171245087 7.8015625  6.40905512235318 0.20625  6.40905512235318 0.20625  C 6.20696098274004 -0.0687500000000001  5.79329954071941 -0.0687500000000001  5.59278426157201 0.20625  C 5.59278426157201 0.20625  0.0241433989507681 7.8015625  0.0241433989507681 7.8015625  C -0.0358532987468808 7.884375  0.0225645384850406 8  0.126769329223062 8  C 0.126769329223062 8  1.31091467851876 8  1.31091467851876 8  C 1.39143656227087 8  1.46722186462579 7.9609375  1.51458767859762 7.896875  C 1.51458767859762 7.896875  6.00013026172973 1.778125  6.00013026172973 1.778125  C 6.00013026172973 1.778125  10.4856728448618 7.896875  10.4856728448618 7.896875  C 10.5330386588337 7.9609375  10.6088239611886 8  10.6893458449407 8  C 10.6893458449407 8  11.8734911942364 8  11.8734911942364 8  C 11.9761171245087 8  12.0361138222063 7.884375  11.9761171245087 7.8015625  Z " fill-rule="nonzero" fill="#1677ff" stroke="none" transform="matrix(1 0 0 1 226 16 )" />
  </g>
</svg>