<?xml version="1.0" encoding="utf-8"?>
<svg version="1.1" xmlns:xlink="http://www.w3.org/1999/xlink" width="14px" height="16px" xmlns="http://www.w3.org/2000/svg">
  <g transform="matrix(1 0 0 1 -836 -8780 )">
    <path d="M 13.8541666666667 14.9607142857143  C 13.8359375 14.1071428571429  13.65546875 13.2767857142857  13.31640625 12.4928571428571  C 12.971875 11.6928571428571  12.4760416666667 10.975  11.8471354166667 10.3589285714286  C 11.2182291666667 9.74285714285714  10.4854166666667 9.25892857142857  9.66875 8.91964285714286  C 9.66145833333333 8.91607142857143  9.65416666666667 8.91428571428571  9.646875 8.91071428571429  C 10.7825520833333 8.10714285714286  11.5208333333333 6.79821428571429  11.5208333333333 5.32142857142857  C 11.5208333333333 2.875  9.49739583333333 0.892857142857143  7 0.892857142857143  C 4.50260416666667 0.892857142857143  2.47916666666667 2.875  2.47916666666667 5.32142857142857  C 2.47916666666667 6.79821428571429  3.21744791666667 8.10714285714286  4.353125 8.9125  C 4.34583333333333 8.91607142857143  4.33854166666667 8.91785714285714  4.33125 8.92142857142857  C 3.51458333333333 9.25892857142857  2.78177083333333 9.74285714285714  2.15286458333333 10.3607142857143  C 1.52395833333333 10.9767857142857  1.02994791666667 11.6946428571429  0.68359375 12.4946428571429  C 0.34453125 13.2767857142857  0.1640625 14.1071428571429  0.145833333333333 14.9607142857143  C 0.144010416666667 15.0410714285714  0.209635416666667 15.1071428571429  0.291666666666667 15.1071428571429  L 1.38541666666667 15.1071428571429  C 1.465625 15.1071428571429  1.52942708333333 15.0446428571429  1.53125 14.9678571428571  C 1.56770833333333 13.5892857142857  2.1328125 12.2982142857143  3.13177083333333 11.3196428571429  C 4.16536458333333 10.3071428571429  5.53802083333333 9.75  7 9.75  C 8.46197916666667 9.75  9.83463541666667 10.3071428571429  10.8682291666667 11.3196428571429  C 11.8671875 12.2982142857143  12.4322916666667 13.5892857142857  12.46875 14.9678571428571  C 12.4705729166667 15.0464285714286  12.534375 15.1071428571429  12.6145833333333 15.1071428571429  L 13.7083333333333 15.1071428571429  C 13.7903645833333 15.1071428571429  13.8559895833333 15.0410714285714  13.8541666666667 14.9607142857143  Z M 9.21666666666667 7.49285714285714  C 8.62421875 8.07321428571429  7.83671875 8.39285714285714  7 8.39285714285714  C 6.16328125 8.39285714285714  5.37578125 8.07321428571429  4.78333333333333 7.49285714285714  C 4.19088541666667 6.9125  3.86458333333333 6.14107142857143  3.86458333333333 5.32142857142857  C 3.86458333333333 4.50178571428571  4.19088541666667 3.73035714285714  4.78333333333333 3.15  C 5.37578125 2.56964285714286  6.16328125 2.25  7 2.25  C 7.83671875 2.25  8.62421875 2.56964285714286  9.21666666666667 3.15  C 9.80911458333333 3.73035714285714  10.1354166666667 4.50178571428571  10.1354166666667 5.32142857142857  C 10.1354166666667 6.14107142857143  9.80911458333333 6.9125  9.21666666666667 7.49285714285714  Z " fill-rule="nonzero" fill="#000000" stroke="none" fill-opacity="0.447058823529412" transform="matrix(1 0 0 1 836 8780 )" />
  </g>
</svg>