<?xml version="1.0" encoding="utf-8"?>
<svg version="1.1" xmlns:xlink="http://www.w3.org/1999/xlink" width="16px" height="15px" xmlns="http://www.w3.org/2000/svg">
  <g transform="matrix(1 0 0 1 -800 -8780 )">
    <path d="M 15.0828125 8.13950892857143  C 15.0828125 7.85491071428572  14.978125 7.58537946428571  14.7890625 7.3828125  L 8.7515625 0.917410714285714  L 8.346875 0.483816964285714  C 8.1546875 0.279575892857143  7.8453125 0.279575892857143  7.653125 0.483816964285714  L 1.2109375 7.3828125  C 1.01875 7.58872767857143  0.915625 7.86160714285714  0.9171875 8.15290178571428  C 0.9234375 8.7421875  1.38125 9.21261160714286  1.93125 9.21261160714286  L 2.5953125 9.21261160714286  L 2.5953125 14.6651785714286  L 13.4046875 14.6651785714286  L 13.4046875 9.21261160714286  L 14.0828125 9.21261160714286  C 14.35 9.21261160714286  14.6015625 9.10044642857143  14.790625 8.89787946428572  C 14.9796875 8.6953125  15.0828125 8.42578125  15.0828125 8.13950892857143  Z M 8.875 10.0446428571429  L 8.875 13.4598214285714  L 7.125 13.4598214285714  L 7.125 10.0446428571429  L 8.875 10.0446428571429  Z M 13.78125 8.00725446428571  L 12.2796875 8.00725446428571  L 12.2796875 13.4598214285714  L 9.875 13.4598214285714  L 9.875 9.64285714285714  C 9.875 9.27287946428571  9.5953125 8.97321428571428  9.25 8.97321428571428  L 6.75 8.97321428571428  C 6.4046875 8.97321428571428  6.125 9.27287946428571  6.125 9.64285714285714  L 6.125 13.4598214285714  L 3.7203125 13.4598214285714  L 3.7203125 8.00725446428571  L 2.2203125 8.00725446428571  L 8.0015625 1.81808035714286  L 8.3625 2.20479910714286  L 13.78125 8.00725446428571  Z " fill-rule="nonzero" fill="#000000" stroke="none" fill-opacity="0.447058823529412" transform="matrix(1 0 0 1 800 8780 )" />
  </g>
</svg>