<?xml version="1.0" encoding="utf-8"?>
<svg version="1.1" xmlns:xlink="http://www.w3.org/1999/xlink" width="20px" height="20px" xmlns="http://www.w3.org/2000/svg">
  <g transform="matrix(1 0 0 1 -1274 -122 )">
    <path d="M 19.31875 18.29921875  C 19.39375 18.22421875  19.39375 18.10234375  19.31875 18.02734375  L 13.23203125 11.940625  C 14.1765625 10.71953125  14.6875 9.2265625  14.6875 7.65625  C 14.6875 5.7765625  13.95390625 4.0140625  12.62734375 2.68515625  C 11.30078125 1.35625  9.53359375 0.625  7.65625 0.625  C 5.77890625 0.625  4.01171875 1.35859375  2.68515625 2.68515625  C 1.35625 4.01171875  0.625 5.7765625  0.625 7.65625  C 0.625 9.53359375  1.35859375 11.30078125  2.68515625 12.62734375  C 4.01171875 13.95625  5.7765625 14.6875  7.65625 14.6875  C 9.2265625 14.6875  10.7171875 14.1765625  11.93828125 13.234375  L 18.025 19.31875  C 18.1 19.39375  18.221875 19.39375  18.296875 19.31875  L 19.31875 18.29921875  Z M 12.90625 7.65625  C 12.90625 9.0578125  12.36015625 10.37734375  11.36875 11.36875  C 10.375 12.36015625  9.0578125 12.90625  7.65625 12.90625  C 6.2546875 12.90625  4.9375 12.36015625  3.94375 11.36875  C 2.95234375 10.375  2.40625 9.0578125  2.40625 7.65625  C 2.40625 6.2546875  2.95234375 4.93515625  3.94375 3.94375  C 4.9375 2.95234375  6.2546875 2.40625  7.65625 2.40625  C 9.0578125 2.40625  10.37734375 2.95  11.36875 3.94375  C 12.36015625 4.9375  12.90625 6.2546875  12.90625 7.65625  Z " fill-rule="nonzero" fill="#000000" stroke="none" fill-opacity="0.447058823529412" transform="matrix(1 0 0 1 1274 122 )" />
  </g>
</svg>