<?xml version="1.0" encoding="utf-8"?>
<svg version="1.1" xmlns:xlink="http://www.w3.org/1999/xlink" width="16px" height="14px" xmlns="http://www.w3.org/2000/svg">
  <g transform="matrix(1 0 0 1 -23 -13 )">
    <path d="M 15.0828125 7.596875  C 15.0828125 7.33125  14.978125 7.0796875  14.7890625 6.890625  L 8.7515625 0.85625  L 8.346875 0.4515625  C 8.1546875 0.2609375  7.8453125 0.2609375  7.653125 0.4515625  L 1.2109375 6.890625  C 1.01875 7.0828125  0.915625 7.3375  0.9171875 7.609375  C 0.9234375 8.159375  1.38125 8.5984375  1.93125 8.5984375  L 2.5953125 8.5984375  L 2.5953125 13.6875  L 13.4046875 13.6875  L 13.4046875 8.5984375  L 14.0828125 8.5984375  C 14.35 8.5984375  14.6015625 8.49375  14.790625 8.3046875  C 14.9796875 8.115625  15.0828125 7.8640625  15.0828125 7.596875  Z M 8.875 9.375  L 8.875 12.5625  L 7.125 12.5625  L 7.125 9.375  L 8.875 9.375  Z M 13.78125 7.4734375  L 12.2796875 7.4734375  L 12.2796875 12.5625  L 9.875 12.5625  L 9.875 9  C 9.875 8.6546875  9.5953125 8.375  9.25 8.375  L 6.75 8.375  C 6.4046875 8.375  6.125 8.6546875  6.125 9  L 6.125 12.5625  L 3.7203125 12.5625  L 3.7203125 7.4734375  L 2.2203125 7.4734375  L 8.0015625 1.696875  L 8.3625 2.0578125  L 13.78125 7.4734375  Z " fill-rule="nonzero" fill="#000000" stroke="none" fill-opacity="0.447058823529412" transform="matrix(1 0 0 1 23 13 )" />
  </g>
</svg>