<?xml version="1.0" encoding="utf-8"?>
<svg version="1.1" xmlns:xlink="http://www.w3.org/1999/xlink" width="7px" height="12px" xmlns="http://www.w3.org/2000/svg">
  <g transform="matrix(1 0 0 1 -1381 -776 )">
    <path d="M 6.81911764705882 6.39892756502424  C 7.06029411764706 6.19629769072622  7.06029411764706 5.80370230927378  6.81911764705882 5.60107243497576  C 6.81911764705882 5.60107243497576  0.189705882352941 0.0271678458869866  0.189705882352941 0.0271678458869866  C 0.111764705882352 -0.0377370357241009  0 0.0208356623151731  0 0.126899737143048  C 0 0.126899737143048  0 1.35059421239599  0 1.35059421239599  C 0 1.42816346115071  0.0338235294117649 1.50256661811951  0.0897058823529415 1.55005799490812  C 0.0897058823529415 1.55005799490812  5.38382352941176 6  5.38382352941176 6  C 5.38382352941176 6  0.0897058823529415 10.4499420050919  0.0897058823529415 10.4499420050919  C 0.0323529411764713 10.4974333818805  0 10.5718365388493  0 10.649405787604  C 0 10.649405787604  0 11.873100262857  0 11.873100262857  C 0 11.9791643376848  0.113235294117647 12.0377370357241  0.189705882352941 11.972832154113  C 0.189705882352941 11.972832154113  6.81911764705882 6.39892756502424  6.81911764705882 6.39892756502424  Z " fill-rule="nonzero" fill="#000000" stroke="none" fill-opacity="0.447058823529412" transform="matrix(1 0 0 1 1381 776 )" />
  </g>
</svg>