<?xml version="1.0" encoding="utf-8"?>
<svg version="1.1" xmlns:xlink="http://www.w3.org/1999/xlink" width="7px" height="12px" xmlns="http://www.w3.org/2000/svg">
  <g transform="matrix(1 0 0 1 -1140 -776 )">
    <path d="M 6.91029411764706 1.55026250629925  C 6.96617647058823 1.5027648635983  7 1.42835189003348  7 1.35077240695525  C 7 1.35077240695525  7 0.126916480027419  7 0.126916480027419  C 7 0.0208384113286293  6.88676470588235 -0.0377420146692104  6.81029411764706 0.0271714303554224  C 6.81029411764706 0.0271714303554224  0.180882352941177 5.60181142869036  0.180882352941177 5.60181142869036  C -0.0602941176470587 5.80446803754775  -0.0602941176470587 6.19553196245225  0.180882352941177 6.39818857130964  C 0.180882352941177 6.39818857130964  6.81029411764706 11.9728285696446  6.81029411764706 11.9728285696446  C 6.88823529411765 12.0377420146692  7 11.9791615886714  7 11.8730835199726  C 7 11.8730835199726  7 10.6492275930447  7 10.6492275930447  C 7 10.5716481099665  6.96617647058824 10.4972351364017  6.91029411764706 10.4497374937008  C 6.91029411764706 10.4497374937008  1.61617647058823 6.00079162737835  1.61617647058823 6.00079162737835  C 1.61617647058823 6.00079162737835  6.91029411764706 1.55026250629925  6.91029411764706 1.55026250629925  Z " fill-rule="nonzero" fill="#000000" stroke="none" fill-opacity="0.447058823529412" transform="matrix(1 0 0 1 1140 776 )" />
  </g>
</svg>