<?xml version="1.0" encoding="utf-8"?>
<svg version="1.1" xmlns:xlink="http://www.w3.org/1999/xlink" width="12px" height="14px" xmlns="http://www.w3.org/2000/svg">
  <g transform="matrix(1 0 0 1 -135 -66 )">
    <path d="M 11.8125 5.7359375  C 11.8125 4.9671875  11.6578125 4.2203125  11.353125 3.5171875  C 11.059375 2.8390625  10.6390625 2.23125  10.1046875 1.709375  C 9.5703125 1.1875  8.95 0.779687500000001  8.2578125 0.493750000000001  C 7.5421875 0.196875  6.7828125 0.046875  6 0.046875  C 5.2171875 0.046875  4.4578125 0.196875  3.7421875 0.4921875  C 3.05 0.778125  2.4296875 1.1875  1.8953125 1.7078125  C 1.3609375 2.2296875  0.940625 2.8390625  0.646875 3.515625  C 0.3421875 4.21875  0.1875 4.965625  0.1875 5.734375  C 0.1875 6.8375  0.4515625 7.9359375  0.9703125 8.9953125  C 1.3875 9.846875  1.9703125 10.6765625  2.7046875 11.465625  C 3.959375 12.8125  5.275 13.6359375  5.6484375 13.85625  C 5.75625 13.9203125  5.878125 13.9515625  5.9984375 13.9515625  C 6.1203125 13.9515625  6.240625 13.9203125  6.3484375 13.85625  C 6.721875 13.6359375  8.0375 12.8125  9.2921875 11.465625  C 10.0265625 10.678125  10.609375 9.846875  11.0265625 8.9953125  C 11.5484375 7.9375  11.8125 6.840625  11.8125 5.7359375  Z M 10.6875 5.7359375  C 10.6875 9.50625  7.0296875 12.0984375  6 12.753125  C 4.9703125 12.0984375  1.3125 9.50625  1.3125 5.7359375  C 1.3125 4.51875  1.7984375 3.375  2.68125 2.5125  C 3.5671875 1.6484375  4.7453125 1.171875  6 1.171875  C 7.2546875 1.171875  8.4328125 1.6484375  9.31875 2.5140625  C 10.2015625 3.375  10.6875 4.51875  10.6875 5.7359375  Z M 8.75 5.859375  C 8.75 4.340625  7.51875 3.109375  6 3.109375  C 4.48125 3.109375  3.25 4.340625  3.25 5.859375  C 3.25 7.378125  4.48125 8.609375  6 8.609375  C 7.51875 8.609375  8.75 7.378125  8.75 5.859375  Z M 7.75 5.859375  C 7.75 6.3265625  7.56875 6.765625  7.2375 7.096875  C 6.90625 7.4265625  6.4671875 7.609375  6 7.609375  C 5.5328125 7.609375  5.09375 7.4265625  4.7625 7.096875  C 4.4328125 6.765625  4.25 6.3265625  4.25 5.859375  C 4.25 5.3921875  4.4328125 4.953125  4.7625 4.621875  C 5.09375 4.290625  5.5328125 4.109375  6 4.109375  C 6.4671875 4.109375  6.90625 4.290625  7.2375 4.621875  C 7.56875 4.953125  7.75 5.3921875  7.75 5.859375  Z " fill-rule="nonzero" fill="#000000" stroke="none" fill-opacity="0.447058823529412" transform="matrix(1 0 0 1 135 66 )" />
  </g>
</svg>