<?xml version="1.0" encoding="utf-8"?>
<svg version="1.1" xmlns:xlink="http://www.w3.org/1999/xlink" width="16px" height="16px" xmlns="http://www.w3.org/2000/svg">
  <g transform="matrix(1 0 0 1 -127 -439 )">
    <path d="M 135 439  C 139.48 439  143 442.52  143 447  C 143 451.48  139.48 455  135 455  C 130.52 455  127 451.48  127 447  C 127 442.52  130.52 439  135 439  Z " fill-rule="nonzero" fill="#ffffff" stroke="none" />
    <path d="M 135 439.5  C 139.2 439.5  142.5 442.8  142.5 447  C 142.5 451.2  139.2 454.5  135 454.5  C 130.8 454.5  127.5 451.2  127.5 447  C 127.5 442.8  130.8 439.5  135 439.5  Z " stroke-width="1" stroke="#d9d9d9" fill="none" />
  </g>
</svg>