<?xml version="1.0" encoding="utf-8"?>
<svg version="1.1" xmlns:xlink="http://www.w3.org/1999/xlink" width="12px" height="12px" xmlns="http://www.w3.org/2000/svg">
  <g transform="matrix(1 0 0 1 -18 -17 )">
    <path d="M 5.5 0.5  C 5.5 0.3625  5.3875 0.25  5.25 0.25  L 0.5 0.25  C 0.3625 0.25  0.25 0.3625  0.25 0.5  L 0.25 5.25  C 0.25 5.3875  0.3625 5.5  0.5 5.5  L 5.25 5.5  C 5.3875 5.5  5.5 5.3875  5.5 5.25  L 5.5 0.5  Z M 4.4375 1.3125  L 4.4375 4.4375  L 1.3125 4.4375  L 1.3125 1.3125  L 4.4375 1.3125  Z M 11.75 0.5  C 11.75 0.3625  11.6375 0.25  11.5 0.25  L 6.75 0.25  C 6.6125 0.25  6.5 0.3625  6.5 0.5  L 6.5 5.25  C 6.5 5.3875  6.6125 5.5  6.75 5.5  L 11.5 5.5  C 11.6375 5.5  11.75 5.3875  11.75 5.25  L 11.75 0.5  Z M 10.6875 1.3125  L 10.6875 4.4375  L 7.5625 4.4375  L 7.5625 1.3125  L 10.6875 1.3125  Z M 5.5 6.75  C 5.5 6.6125  5.3875 6.5  5.25 6.5  L 0.5 6.5  C 0.3625 6.5  0.25 6.6125  0.25 6.75  L 0.25 11.5  C 0.25 11.6375  0.3625 11.75  0.5 11.75  L 5.25 11.75  C 5.3875 11.75  5.5 11.6375  5.5 11.5  L 5.5 6.75  Z M 4.4375 7.5625  L 4.4375 10.6875  L 1.3125 10.6875  L 1.3125 7.5625  L 4.4375 7.5625  Z M 11.75 6.75  C 11.75 6.6125  11.6375 6.5  11.5 6.5  L 6.75 6.5  C 6.6125 6.5  6.5 6.6125  6.5 6.75  L 6.5 11.5  C 6.5 11.6375  6.6125 11.75  6.75 11.75  L 11.5 11.75  C 11.6375 11.75  11.75 11.6375  11.75 11.5  L 11.75 6.75  Z M 10.6875 7.5625  L 10.6875 10.6875  L 7.5625 10.6875  L 7.5625 7.5625  L 10.6875 7.5625  Z " fill-rule="nonzero" fill="#000000" stroke="none" fill-opacity="0.87843137254902" transform="matrix(1 0 0 1 18 17 )" />
  </g>
</svg>