<?xml version="1.0" encoding="utf-8"?>
<svg version="1.1" xmlns:xlink="http://www.w3.org/1999/xlink" width="22px" height="22px" xmlns="http://www.w3.org/2000/svg">
  <defs>
    <filter x="1149px" y="184px" width="22px" height="22px" filterUnits="userSpaceOnUse" id="filter27">
      <feOffset dx="0" dy="3" in="SourceAlpha" result="shadowOffsetInner" />
      <feGaussianBlur stdDeviation="3" in="shadowOffsetInner" result="shadowGaussian" />
      <feComposite in2="shadowGaussian" operator="atop" in="SourceAlpha" result="shadowComposite" />
      <feColorMatrix type="matrix" values="0 0 0 0 0  0 0 0 0 0  0 0 0 0 0  0 0 0 0.12156862745098 0  " in="shadowComposite" />
    </filter>
    <g id="widget28">
      <path d="M 9.96986792353645 9.79907975460123  C 9.96986792353645 9.79907975460123  5.82436322087259 5  5.82436322087259 5  C 5.82436322087259 5  9.96986792353645 0.200920245398773  9.96986792353645 0.200920245398773  C 10.0393544785525 0.12116564417178  9.98092260274355 0  9.87353429044597 0  C 9.87353429044597 0  8.61330086083616 0  8.61330086083616 0  C 8.53907658615989 0  8.46801079125708 0.0322085889570556  8.41905435476848 0.0874233128834358  C 8.41905435476848 0.0874233128834358  5 4.04601226993865  5 4.04601226993865  C 5 4.04601226993865  1.58094564523152 0.0874233128834354  1.58094564523152 0.0874233128834354  C 1.53356844862965 0.0322085889570551  1.46250265372684 0  1.38669913916384 0  C 1.38669913916384 0  0.126465709554027 0  0.126465709554027 0  C 0.0190773972564483 0  -0.0393544785525278 0.121165644171779  0.0301320764635522 0.200920245398773  C 0.0301320764635522 0.200920245398773  4.17563677912741 5  4.17563677912741 5  C 4.17563677912741 5  0.0301320764635522 9.79907975460123  0.0301320764635522 9.79907975460123  C -0.0393544785525278 9.87883435582822  0.0190773972564488 10  0.126465709554027 10  C 0.126465709554027 10  1.38669913916384 10  1.38669913916384 10  C 1.46092341384011 10  1.53198920874292 9.96779141104294  1.58094564523152 9.91257668711656  C 1.58094564523152 9.91257668711656  5 5.95398773006135  5 5.95398773006135  C 5 5.95398773006135  8.41905435476848 9.91257668711656  8.41905435476848 9.91257668711656  C 8.46643155137036 9.96779141104294  8.53749734627316 10  8.61330086083616 10  C 8.61330086083616 10  9.87353429044597 10  9.87353429044597 10  C 9.98092260274355 10  10.0393544785525 9.87883435582822  9.96986792353645 9.79907975460123  Z " fill-rule="nonzero" fill="#000000" stroke="none" fill-opacity="0.450980392156863" transform="matrix(1 0 0 1 1155 187 )" />
    </g>
  </defs>
  <g transform="matrix(1 0 0 1 -1149 -184 )">
    <use xlink:href="#widget28" filter="url(#filter27)" />
    <use xlink:href="#widget28" />
  </g>
</svg>